<?xml version="1.0" ?><!DOCTYPE svg  PUBLIC '-//W3C//DTD SVG 1.1//EN'  'http://www.w3.org/Graphics/SVG/1.1/DTD/svg11.dtd'><svg height="512px" style="shape-rendering:geometricPrecision; text-rendering:geometricPrecision; image-rendering:optimizeQuality; fill-rule:evenodd; clip-rule:evenodd" version="1.1" viewBox="0 0 512 512" width="512px" xml:space="preserve" xmlns="http://www.w3.org/2000/svg" xmlns:xlink="http://www.w3.org/1999/xlink"><defs><style type="text/css">
   <![CDATA[
    .fil0 {fill:#2B2A29}
   ]]>
  </style></defs><g id="Layer_x0020_1"><path class="fil0" d="M61 500l0 0c0,0 79,15 124,-85 44,-100 62,-127 72,-148 15,83 39,195 64,214 40,30 95,26 111,-19 16,-45 -3,-77 -3,-77 0,0 5,11 -21,40 -26,29 -76,32 -92,-45 -16,-77 -74,-315 -74,-315 0,0 -33,-76 -107,-54 -74,22 -54,96 -40,113 14,16 30,-4 30,-4 0,0 -16,-62 30,-66 47,-4 76,48 87,123 -11,32 -59,157 -181,323z"/></g></svg>