<svg xmlns:dc="http://purl.org/dc/elements/1.1/" xmlns:cc="http://creativecommons.org/ns#" xmlns:rdf="http://www.w3.org/1999/02/22-rdf-syntax-ns#" xmlns="http://www.w3.org/2000/svg" xmlns:xlink="http://www.w3.org/1999/xlink" viewBox="2 2 81 79" height="83px" width="83px" xml:space="preserve" id="svg2" version="1.1"  preserveAspectRatio="xMidYMid meet"><rect id="svgEditorBackground" x="0" y="0" width="707.9600219726562" height="666.6533203125" style="fill: none; stroke: none;"/><metadata id="metadata8"><rdf:RDF><cc:Work rdf:about=""><dc:format>image/svg+xml</dc:format><dc:type rdf:resource="http://purl.org/dc/dcmitype/StillImage"/></cc:Work></rdf:RDF></metadata><defs id="defs6"><clipPath id="clipPath20" clipPathUnits="userSpaceOnUse"><path id="path18" d="M 0,4999.88 V 0 h 5309.73 v 4999.88 z"/></clipPath></defs><g transform="matrix(1.3333333,0,0,-1.3333333,0,666.65333)" id="g10"><g transform="scale(0.1)" id="g12"><g id="g14"><g clip-path="url(#clipPath20)" id="g16"><path id="path24" style="fill:#1b1817;fill-opacity:1;fill-rule:evenodd;stroke:none" d="M217.5955922475381,4947.035689638439c-89.94000000000005,0,-162.8800000000001,-72.93000000000029,-162.8800000000001,-162.89999999999964c0,-71.96000000000004,46.67000000000007,-133.02000000000044,111.40000000000009,-154.5699999999997c8.150000000000091,-1.4899999999997817,11.11999999999989,3.5399999999999636,11.11999999999989,7.8599999999996735c0,3.8699999999998913,-0.14000000000010004,14.109999999999673,-0.2200000000000273,27.699999999999818c-45.309999999999945,-9.840000000000146,-54.86999999999989,21.840000000000146,-54.86999999999989,21.840000000000146c-7.410000000000082,18.81999999999971,-18.089999999999918,23.829999999999927,-18.089999999999918,23.829999999999927c-14.789999999999964,10.100000000000364,1.1199999999998909,9.899999999999636,1.1199999999998909,9.899999999999636c16.34999999999991,-1.1499999999996362,24.950000000000045,-16.789999999999964,24.950000000000045,-16.789999999999964c14.529999999999973,-24.890000000000327,38.13000000000011,-17.699999999999818,47.41000000000008,-13.529999999999745c1.4800000000000182,10.520000000000437,5.6900000000000555,17.699999999999818,10.339999999999918,21.770000000000437c-36.17000000000007,4.119999999999891,-74.20000000000005,18.090000000000146,-74.20000000000005,80.51000000000022c0,17.789999999999964,6.349999999999909,32.31999999999971,16.769999999999982,43.710000000000036c-1.6800000000000637,4.119999999999891,-7.269999999999982,20.68000000000029,1.599999999999909,43.10999999999967c0,0,13.670000000000073,4.380000000000109,44.789999999999964,-16.6899999999996c12.990000000000009,3.6099999999996726,26.930000000000064,5.4099999999998545,40.77999999999997,5.479999999999563c13.839999999999918,-0.06999999999970895,27.769999999999982,-1.869999999999891,40.77999999999997,-5.479999999999563c31.09999999999991,21.06999999999971,44.75,16.6899999999996,44.75,16.6899999999996c8.8900000000001,-22.43000000000029,3.2999999999999545,-38.98999999999978,1.6300000000001091,-43.10999999999967c10.440000000000055,-11.390000000000327,16.74000000000001,-25.920000000000073,16.74000000000001,-43.710000000000036c0,-62.57999999999993,-38.08999999999992,-76.35000000000036,-74.37000000000012,-80.38000000000011c5.839999999999918,-5.029999999999745,11.049999999999955,-14.970000000000255,11.049999999999955,-30.170000000000073c0,-21.770000000000437,-0.20000000000004547,-39.340000000000146,-0.20000000000004547,-44.68000000000029c0,-4.3599999999996735,2.9400000000000546,-9.430000000000291,11.200000000000045,-7.8400000000001455c64.68000000000006,21.590000000000146,111.30999999999995,82.60000000000036,111.30999999999995,154.55000000000018c0,89.97000000000025,-72.94000000000005,162.89999999999964,-162.91000000000008,162.89999999999964" transform="matrix(1.82417 0 0 1.82417 -77.5862 -4045.5)"/><path id="path42" style="fill:none;stroke:#3a7fc3;stroke-width:10;stroke-linecap:round;stroke-linejoin:miter;stroke-miterlimit:10;stroke-dasharray:none;stroke-opacity:1" d="m 2248.98,4994.88 v -5"/></g></g></g></g></svg>